<?xml version="1.0" encoding="UTF-8"?>
<svg id="Layer_2" data-name="Layer 2" xmlns="http://www.w3.org/2000/svg" xmlns:xlink="http://www.w3.org/1999/xlink" viewBox="0 0 408.7 408.61">
  <defs>
    <style>
      .cls-1 {
        fill: url(#radial-gradient-6);
      }

      .cls-2 {
        fill: url(#radial-gradient-5);
      }

      .cls-3 {
        fill: url(#radial-gradient-3);
      }

      .cls-4 {
        fill: url(#radial-gradient-4);
      }

      .cls-5 {
        fill: url(#radial-gradient-8);
      }

      .cls-6 {
        fill: url(#radial-gradient-7);
      }

      .cls-7 {
        fill: url(#radial-gradient-2);
      }

      .cls-8 {
        fill: url(#radial-gradient);
      }
    </style>
    <radialGradient id="radial-gradient" cx="120.22" cy="25.02" fx="120.22" fy="25.02" r="90.79" gradientTransform="translate(29.19 195.07) rotate(-45)" gradientUnits="userSpaceOnUse">
      <stop offset="0" stop-color="#9aca42" stop-opacity="0"/>
      <stop offset=".34" stop-color="#9aca42" stop-opacity=".01"/>
      <stop offset=".48" stop-color="#9aca42" stop-opacity=".05"/>
      <stop offset=".59" stop-color="#9aca42" stop-opacity=".11"/>
      <stop offset=".68" stop-color="#9aca42" stop-opacity=".2"/>
      <stop offset=".76" stop-color="#9aca42" stop-opacity=".31"/>
      <stop offset=".83" stop-color="#9aca42" stop-opacity=".45"/>
      <stop offset=".89" stop-color="#9aca42" stop-opacity=".62"/>
      <stop offset=".95" stop-color="#9aca42" stop-opacity=".81"/>
      <stop offset="1" stop-color="#9aca42"/>
    </radialGradient>
    <radialGradient id="radial-gradient-2" cx="1108.27" cy="-1149.58" fx="1108.27" fy="-1149.58" r="90.79" gradientTransform="translate(1724.2 247.55) rotate(-135)" gradientUnits="userSpaceOnUse">
      <stop offset="0" stop-color="#50c0a9" stop-opacity="0"/>
      <stop offset=".39" stop-color="#50c0a9" stop-opacity="0"/>
      <stop offset=".53" stop-color="#50c0a9" stop-opacity=".05"/>
      <stop offset=".63" stop-color="#50c0a9" stop-opacity=".11"/>
      <stop offset=".72" stop-color="#50c0a9" stop-opacity=".2"/>
      <stop offset=".79" stop-color="#50c0a9" stop-opacity=".31"/>
      <stop offset=".85" stop-color="#50c0a9" stop-opacity=".45"/>
      <stop offset=".91" stop-color="#50c0a9" stop-opacity=".62"/>
      <stop offset=".96" stop-color="#50c0a9" stop-opacity=".81"/>
      <stop offset="1" stop-color="#50c0a9"/>
    </radialGradient>
    <radialGradient id="radial-gradient-3" cx="2277.39" cy="-801.64" fx="2277.39" fy="-801.64" r="90.79" gradientTransform="translate(2478.73 -492.03) rotate(-180)" gradientUnits="userSpaceOnUse">
      <stop offset="0" stop-color="#ef739a" stop-opacity="0"/>
      <stop offset=".33" stop-color="#ef739a" stop-opacity="0"/>
      <stop offset=".47" stop-color="#ef739a" stop-opacity=".04"/>
      <stop offset=".57" stop-color="#ef739a" stop-opacity=".09"/>
      <stop offset=".66" stop-color="#ef739a" stop-opacity=".16"/>
      <stop offset=".73" stop-color="#ef739a" stop-opacity=".26"/>
      <stop offset=".8" stop-color="#ef739a" stop-opacity=".38"/>
      <stop offset=".86" stop-color="#ef739a" stop-opacity=".52"/>
      <stop offset=".92" stop-color="#ef739a" stop-opacity=".69"/>
      <stop offset=".97" stop-color="#ef739a" stop-opacity=".87"/>
      <stop offset="1" stop-color="#ef739a"/>
    </radialGradient>
    <radialGradient id="radial-gradient-4" cx="2568.08" cy="-600.55" fx="2568.08" fy="-600.55" r="91.99" gradientTransform="translate(1666.35 -1961.26) rotate(135)" gradientUnits="userSpaceOnUse">
      <stop offset="0" stop-color="#00a45b" stop-opacity="0"/>
      <stop offset=".36" stop-color="#00a45b" stop-opacity=".01"/>
      <stop offset=".51" stop-color="#00a45b" stop-opacity=".06"/>
      <stop offset=".62" stop-color="#00a45b" stop-opacity=".13"/>
      <stop offset=".71" stop-color="#00a45b" stop-opacity=".24"/>
      <stop offset=".8" stop-color="#00a45b" stop-opacity=".38"/>
      <stop offset=".87" stop-color="#00a45b" stop-opacity=".55"/>
      <stop offset=".93" stop-color="#00a45b" stop-opacity=".76"/>
      <stop offset=".99" stop-color="#00a45b" stop-opacity=".99"/>
      <stop offset="1" stop-color="#00a45b"/>
    </radialGradient>
    <radialGradient id="radial-gradient-5" cx="830.19" cy="237.27" fx="830.19" fy="237.27" r="90.79" gradientTransform="translate(546.96 -622.92) rotate(90)" gradientUnits="userSpaceOnUse">
      <stop offset="0" stop-color="#50c0a9" stop-opacity="0"/>
      <stop offset=".34" stop-color="#50bea8" stop-opacity=".01"/>
      <stop offset=".49" stop-color="#53b8a8" stop-opacity=".06"/>
      <stop offset=".61" stop-color="#57aea6" stop-opacity=".14"/>
      <stop offset=".71" stop-color="#5d9fa5" stop-opacity=".26"/>
      <stop offset=".8" stop-color="#658ca3" stop-opacity=".41"/>
      <stop offset=".88" stop-color="#6f75a0" stop-opacity=".6"/>
      <stop offset=".95" stop-color="#7b5a9d" stop-opacity=".82"/>
      <stop offset="1" stop-color="#85459b"/>
    </radialGradient>
    <radialGradient id="radial-gradient-6" cx="1289.54" cy="185.5" fx="1289.54" fy="185.5" r="90.79" gradientTransform="translate(-499.83 -911.08) rotate(45)" gradientUnits="userSpaceOnUse">
      <stop offset="0" stop-color="#506ab2" stop-opacity="0"/>
      <stop offset=".35" stop-color="#506ab2" stop-opacity=".01"/>
      <stop offset=".5" stop-color="#506ab2" stop-opacity=".05"/>
      <stop offset=".61" stop-color="#506ab2" stop-opacity=".12"/>
      <stop offset=".7" stop-color="#506ab2" stop-opacity=".22"/>
      <stop offset=".78" stop-color="#506ab2" stop-opacity=".35"/>
      <stop offset=".85" stop-color="#506ab2" stop-opacity=".51"/>
      <stop offset=".92" stop-color="#506ab2" stop-opacity=".7"/>
      <stop offset=".98" stop-color="#506ab2" stop-opacity=".91"/>
      <stop offset="1" stop-color="#506ab2"/>
    </radialGradient>
    <radialGradient id="radial-gradient-7" cx="207.21" cy="103.5" fx="207.21" fy="103.5" r="93.27" gradientUnits="userSpaceOnUse">
      <stop offset="0" stop-color="#d26caa" stop-opacity="0"/>
      <stop offset=".34" stop-color="#d26caa" stop-opacity="0"/>
      <stop offset=".48" stop-color="#d26caa" stop-opacity=".04"/>
      <stop offset=".59" stop-color="#d26caa" stop-opacity=".1"/>
      <stop offset=".68" stop-color="#d26caa" stop-opacity=".19"/>
      <stop offset=".75" stop-color="#d26caa" stop-opacity=".3"/>
      <stop offset=".82" stop-color="#d26caa" stop-opacity=".43"/>
      <stop offset=".89" stop-color="#d26caa" stop-opacity=".59"/>
      <stop offset=".94" stop-color="#d26caa" stop-opacity=".78"/>
      <stop offset="1" stop-color="#d26caa" stop-opacity=".98"/>
      <stop offset="1" stop-color="#d26caa"/>
    </radialGradient>
    <radialGradient id="radial-gradient-8" cx="29.9" cy="-1364.94" fx="29.9" fy="-1364.94" r="93.27" gradientTransform="translate(1468.44 231.28) rotate(-90)" gradientUnits="userSpaceOnUse">
      <stop offset="0" stop-color="#69cdea" stop-opacity="0"/>
      <stop offset=".33" stop-color="#69cdea" stop-opacity="0"/>
      <stop offset=".47" stop-color="#69cdea" stop-opacity=".04"/>
      <stop offset=".57" stop-color="#69cdea" stop-opacity=".09"/>
      <stop offset=".66" stop-color="#69cdea" stop-opacity=".17"/>
      <stop offset=".73" stop-color="#69cdea" stop-opacity=".27"/>
      <stop offset=".8" stop-color="#69cdea" stop-opacity=".39"/>
      <stop offset=".86" stop-color="#69cdea" stop-opacity=".53"/>
      <stop offset=".92" stop-color="#69cdea" stop-opacity=".7"/>
      <stop offset=".97" stop-color="#69cdea" stop-opacity=".89"/>
      <stop offset="1" stop-color="#69cdea"/>
    </radialGradient>
  </defs>
  <g id="solid">
    <g id="BACK_GRAPHIC" data-name="BACK GRAPHIC">
      <g id="environ_1" data-name="environ 1">
        <path class="cls-8" d="m175.27,62.36c13.58,4.53,25.17,16.03,25.75,25.56.58,9.53,5.32,24.08,10.54,32.34,5.22,8.26,5.64,24.29.95,35.63-4.7,11.34-8.53,26.8-8.51,34.36s-5.64,12.79-12.56,11.63-22.38.1-34.36,2.8c-11.98,2.7-32.96,1.41-46.62-2.87l-6.91-2.16c-13.66-4.28-27.03-11.32-29.69-15.64s-13.77-15.45-24.68-24.73l-8.39-7.14c-10.91-9.28-15.35-27.69-9.87-40.92l13.56-32.74c5.48-13.23,21.64-23.11,35.91-21.96l4.34.35c14.27,1.15,31.49-1.32,38.25-5.49,6.77-4.17,15.19-5.44,18.71-2.83s17.53,8.45,31.11,12.98l2.46.82Z"/>
      </g>
      <g id="environ_1-2" data-name="environ 1">
        <path class="cls-7" d="m62.26,233.39c4.53-13.58,16.03-25.17,25.56-25.75s24.08-5.32,32.34-10.54c8.26-5.22,24.29-5.64,35.63-.95,11.34,4.7,26.8,8.53,34.36,8.51s12.79,5.64,11.63,12.56c-1.16,6.92.1,22.38,2.8,34.36,2.7,11.98,1.41,32.96-2.87,46.62l-2.16,6.91c-4.28,13.66-11.32,27.03-15.64,29.69-4.32,2.66-15.45,13.77-24.73,24.68l-7.14,8.39c-9.28,10.91-27.69,15.35-40.92,9.87l-32.74-13.56c-13.23-5.48-23.11-21.64-21.96-35.91l.35-4.34c1.15-14.27-1.32-31.49-5.49-38.25-4.17-6.77-5.44-15.19-2.83-18.71,2.61-3.53,8.45-17.53,12.98-31.11l.82-2.46Z"/>
      </g>
      <g id="environ_1-3" data-name="environ 1">
        <path class="cls-3" d="m124.42,325.17c-6.4-12.81-6.46-29.14-.13-36.28s13.27-20.79,15.42-30.32c2.15-9.53,13.19-21.17,24.53-25.86,11.34-4.7,24.98-12.92,30.32-18.28s13.03-5.06,17.1.66c4.07,5.72,15.9,15.76,26.28,22.32,10.38,6.56,24.3,22.31,30.94,34.99l3.35,6.41c6.64,12.69,11.11,27.11,9.93,32.06-1.17,4.94-1.19,20.66-.04,34.94l.89,10.98c1.15,14.27-8.73,30.43-21.96,35.91l-32.74,13.56c-13.23,5.48-31.64,1.04-40.92-9.87l-2.82-3.32c-9.28-10.91-23.2-21.33-30.93-23.17s-14.59-6.89-15.24-11.23c-.65-4.34-6.41-18.37-12.82-31.18l-1.16-2.32Z"/>
      </g>
      <g id="environ_1-4" data-name="environ 1">
        <path class="cls-4" d="m233.26,346.25c-13.58-4.53-25.17-16.03-25.75-25.56-.58-9.53-5.32-24.08-10.54-32.34-5.22-8.26-5.64-24.29-.95-35.63,4.7-11.34,5.2-29.66,5.18-37.22s5.64-12.79,12.56-11.63c6.92,1.16,25.71,2.76,37.69.06,11.98-2.7,32.96-1.41,46.62,2.87l6.91,2.16c13.66,4.28,27.03,11.32,29.69,15.64s13.77,15.45,24.68,24.73l8.39,7.14c10.91,9.28,15.35,27.69,9.87,40.92l-13.56,32.74c-5.48,13.23-21.64,23.11-35.91,21.96l-4.34-.35c-14.27-1.15-31.49,1.32-38.25,5.49-6.77,4.17-15.19,5.44-18.71,2.83s-17.53-8.45-31.11-12.98l-2.46-.82Z"/>
      </g>
      <g id="environ_1-5" data-name="environ 1">
        <path class="cls-2" d="m325.26,284.19c-12.81,6.4-29.14,6.46-36.28.13-7.15-6.33-20.79-13.27-30.32-15.42s-21.17-13.19-25.86-24.53-12.92-24.98-18.28-30.32-5.06-13.03.66-17.1c5.72-4.07,15.76-15.9,22.32-26.28,6.56-10.38,22.31-24.3,34.99-30.94l6.41-3.35c12.69-6.64,27.11-11.11,32.06-9.93s20.66,1.19,34.94.04l10.98-.89c14.27-1.15,30.43,8.73,35.91,21.96l13.56,32.74c5.48,13.23,1.04,31.64-9.87,40.92l-3.32,2.82c-10.91,9.28-21.33,23.2-23.17,30.93-1.84,7.73-6.89,14.59-11.23,15.24s-18.37,6.41-31.18,12.82l-2.32,1.16Z"/>
      </g>
      <g id="environ_1-6" data-name="environ 1">
        <path class="cls-1" d="m346.25,175.31c-4.53,13.58-16.03,25.17-25.56,25.75s-24.08,5.32-32.34,10.54-24.29,5.64-35.63.95c-11.34-4.7-26.8-8.53-34.36-8.51-7.56.01-12.79-5.64-11.63-12.56s-.1-22.38-2.8-34.36c-2.7-11.98-1.41-32.96,2.87-46.62l2.16-6.91c4.28-13.66,11.32-27.03,15.64-29.69,4.32-2.66,15.45-13.77,24.73-24.68l7.14-8.39c9.28-10.91,27.69-15.35,40.92-9.87l32.74,13.56c13.23,5.48,23.11,21.64,21.96,35.91l-.35,4.34c-1.15,14.27,1.32,31.49,5.49,38.25,4.17,6.77,5.44,15.19,2.83,18.71-2.61,3.53-8.45,17.53-12.98,31.11l-.82,2.46Z"/>
      </g>
      <g id="environ_1-7" data-name="environ 1">
        <path class="cls-6" d="m284.13,83.43c6.4,12.81,6.46,29.14.13,36.28-6.33,7.15-13.27,20.79-15.42,30.32-2.15,9.53-13.19,21.17-24.53,25.86s-24.98,21.92-30.32,27.28-13.03,5.06-17.1-.66-15.9-24.76-26.28-31.32c-10.38-6.56-24.3-22.31-30.94-34.99l-3.35-6.41c-6.64-12.69-11.11-27.11-9.93-32.06,1.17-4.94,1.19-20.66.04-34.94l-.89-10.98c-1.15-14.27,8.73-30.43,21.96-35.91l32.74-13.56c13.23-5.48,31.64-1.04,40.92,9.87l2.82,3.32c9.28,10.91,23.2,21.33,30.93,23.17s14.59,6.89,15.24,11.23,6.41,18.37,12.82,31.18l1.16,2.32Z"/>
      </g>
      <g id="environ_1-8" data-name="environ 1">
        <path class="cls-5" d="m83.43,124.46c12.81-6.4,29.14-6.46,36.28-.13,7.15,6.33,20.79,13.27,30.32,15.42s21.17,13.19,25.86,24.53c4.7,11.34,21.92,24.98,27.28,30.32s5.06,13.03-.66,17.1c-5.72,4.07-24.76,15.9-31.32,26.28s-22.31,24.3-34.99,30.94l-6.41,3.35c-12.69,6.64-27.11,11.11-32.06,9.93s-20.66-1.19-34.94-.04l-10.98.89c-14.27,1.15-30.43-8.73-35.91-21.96l-13.56-32.74c-5.48-13.23-1.04-31.64,9.87-40.92l3.32-2.82c10.91-9.28,21.33-23.2,23.17-30.93,1.84-7.73,6.89-14.59,11.23-15.24s18.37-6.41,31.18-12.82l2.32-1.16Z"/>
      </g>
    </g>
  </g>
</svg>