<?xml version="1.0" encoding="UTF-8"?>
<svg id="Layer_2" data-name="Layer 2" xmlns="http://www.w3.org/2000/svg" xmlns:xlink="http://www.w3.org/1999/xlink" viewBox="0 0 927.5 809.15">
  <defs>
    <style>
      .cls-1, .cls-2 {
        fill: none;
      }

      .cls-3 {
        letter-spacing: -.05em;
      }

      .cls-3, .cls-4, .cls-5, .cls-6, .cls-7, .cls-8, .cls-9, .cls-10, .cls-11, .cls-12, .cls-13, .cls-14, .cls-15, .cls-16, .cls-17, .cls-18, .cls-19, .cls-20, .cls-21, .cls-22, .cls-23, .cls-24, .cls-25, .cls-26, .cls-27, .cls-28, .cls-29, .cls-30 {
        isolation: isolate;
      }

      .cls-3, .cls-4, .cls-5, .cls-6, .cls-7, .cls-8, .cls-9, .cls-10, .cls-11, .cls-12, .cls-13, .cls-14, .cls-15, .cls-16, .cls-17, .cls-18, .cls-19, .cls-20, .cls-21, .cls-22, .cls-23, .cls-24, .cls-25, .cls-26, .cls-28, .cls-29, .cls-30 {
        font-family: TradeGothicNextSRPro-Hv, 'Trade Gothic Next SR Pro';
        font-size: 19.03px;
      }

      .cls-3, .cls-16, .cls-23, .cls-28 {
        fill: #99ca43;
      }

      .cls-31 {
        clip-path: url(#clippath);
      }

      .cls-4, .cls-13, .cls-25 {
        fill: #d26baa;
      }

      .cls-4, .cls-28, .cls-29, .cls-30 {
        letter-spacing: .02em;
      }

      .cls-32 {
        fill: #4faca7;
      }

      .cls-5 {
        letter-spacing: .01em;
      }

      .cls-5, .cls-12, .cls-18 {
        fill: #ee739b;
      }

      .cls-6, .cls-8, .cls-9, .cls-21, .cls-22, .cls-23, .cls-25 {
        letter-spacing: .02em;
      }

      .cls-6, .cls-17, .cls-24, .cls-26, .cls-30 {
        fill: #68cdec;
      }

      .cls-7, .cls-10, .cls-11, .cls-12 {
        letter-spacing: .02em;
      }

      .cls-7, .cls-14, .cls-21 {
        fill: #4f6ab2;
      }

      .cls-8, .cls-10, .cls-20 {
        fill: #85459b;
      }

      .cls-9, .cls-11, .cls-19 {
        fill: #00a45b;
      }

      .cls-2 {
        stroke: #4faca7;
        stroke-width: .5px;
      }

      .cls-15, .cls-22, .cls-29 {
        fill: #51c0aa;
      }

      .cls-33 {
        fill: url(#radial-gradient-6);
      }

      .cls-34 {
        fill: url(#radial-gradient-5);
      }

      .cls-35 {
        fill: url(#radial-gradient-3);
      }

      .cls-36 {
        fill: url(#radial-gradient-4);
      }

      .cls-37 {
        fill: url(#radial-gradient-8);
      }

      .cls-38 {
        fill: url(#radial-gradient-7);
      }

      .cls-39 {
        fill: url(#radial-gradient-2);
      }

      .cls-24 {
        letter-spacing: -.03em;
      }

      .cls-26 {
        letter-spacing: -.04em;
      }

      .cls-40 {
        fill: url(#radial-gradient);
      }
    </style>
    <radialGradient id="radial-gradient" cx="105.03" cy="566.11" fx="105.03" fy="566.11" r="144.41" gradientTransform="translate(679.29 764.54) rotate(-45) scale(1 -1)" gradientUnits="userSpaceOnUse">
      <stop offset="0" stop-color="#9aca42" stop-opacity="0"/>
      <stop offset=".34" stop-color="#9aca42" stop-opacity="0"/>
      <stop offset=".48" stop-color="#9aca42" stop-opacity=".05"/>
      <stop offset=".59" stop-color="#9aca42" stop-opacity=".11"/>
      <stop offset=".68" stop-color="#9aca42" stop-opacity=".2"/>
      <stop offset=".76" stop-color="#9aca42" stop-opacity=".31"/>
      <stop offset=".83" stop-color="#9aca42" stop-opacity=".45"/>
      <stop offset=".89" stop-color="#9aca42" stop-opacity=".62"/>
      <stop offset=".95" stop-color="#9aca42" stop-opacity=".81"/>
      <stop offset="1" stop-color="#9aca42"/>
    </radialGradient>
    <radialGradient id="radial-gradient-2" cx="669.72" cy="2127.5" fx="669.72" fy="2127.5" r="144.41" gradientTransform="translate(2324.44 -503.82) rotate(-135) scale(1 -1)" gradientUnits="userSpaceOnUse">
      <stop offset="0" stop-color="#50c0a9" stop-opacity="0"/>
      <stop offset=".39" stop-color="#50c0a9" stop-opacity="0"/>
      <stop offset=".53" stop-color="#50c0a9" stop-opacity=".05"/>
      <stop offset=".63" stop-color="#50c0a9" stop-opacity=".11"/>
      <stop offset=".72" stop-color="#50c0a9" stop-opacity=".2"/>
      <stop offset=".79" stop-color="#50c0a9" stop-opacity=".31"/>
      <stop offset=".85" stop-color="#50c0a9" stop-opacity=".45"/>
      <stop offset=".91" stop-color="#50c0a9" stop-opacity=".62"/>
      <stop offset=".96" stop-color="#50c0a9" stop-opacity=".81"/>
      <stop offset="1" stop-color="#50c0a9"/>
    </radialGradient>
    <radialGradient id="radial-gradient-3" cx="1944.52" cy="2071.25" fx="1944.52" fy="2071.25" r="144.42" gradientTransform="translate(2408.23 -1492.03) rotate(-180) scale(1 -1)" gradientUnits="userSpaceOnUse">
      <stop offset="0" stop-color="#ef739a" stop-opacity="0"/>
      <stop offset=".33" stop-color="#ef739a" stop-opacity="0"/>
      <stop offset=".47" stop-color="#ef739a" stop-opacity=".04"/>
      <stop offset=".57" stop-color="#ef739a" stop-opacity=".09"/>
      <stop offset=".66" stop-color="#ef739a" stop-opacity=".16"/>
      <stop offset=".73" stop-color="#ef739a" stop-opacity=".26"/>
      <stop offset=".8" stop-color="#ef739a" stop-opacity=".38"/>
      <stop offset=".86" stop-color="#ef739a" stop-opacity=".52"/>
      <stop offset=".92" stop-color="#ef739a" stop-opacity=".69"/>
      <stop offset=".97" stop-color="#ef739a" stop-opacity=".87"/>
      <stop offset="1" stop-color="#ef739a"/>
    </radialGradient>
    <radialGradient id="radial-gradient-4" cx="2516.27" cy="2000.45" fx="2516.27" fy="2000.45" r="146.32" gradientTransform="translate(945.75 -2662.78) rotate(135) scale(1 -1)" gradientUnits="userSpaceOnUse">
      <stop offset="0" stop-color="#00a45b" stop-opacity="0"/>
      <stop offset=".36" stop-color="#00a45b" stop-opacity="0"/>
      <stop offset=".51" stop-color="#00a45b" stop-opacity=".06"/>
      <stop offset=".62" stop-color="#00a45b" stop-opacity=".13"/>
      <stop offset=".71" stop-color="#00a45b" stop-opacity=".24"/>
      <stop offset=".8" stop-color="#00a45b" stop-opacity=".38"/>
      <stop offset=".87" stop-color="#00a45b" stop-opacity=".55"/>
      <stop offset=".93" stop-color="#00a45b" stop-opacity=".76"/>
      <stop offset=".99" stop-color="#00a45b" stop-opacity=".99"/>
      <stop offset="1" stop-color="#00a45b"/>
    </radialGradient>
    <radialGradient id="radial-gradient-5" cx="1070.14" cy="1058.33" fx="1070.14" fy="1058.33" r="144.42" gradientTransform="translate(-422.27 -653.69) rotate(90) scale(1 -1)" gradientUnits="userSpaceOnUse">
      <stop offset="0" stop-color="#50c0a9" stop-opacity="0"/>
      <stop offset=".34" stop-color="#50bea8" stop-opacity="0"/>
      <stop offset=".49" stop-color="#53b8a8" stop-opacity=".06"/>
      <stop offset=".61" stop-color="#57aea6" stop-opacity=".14"/>
      <stop offset=".71" stop-color="#5d9fa5" stop-opacity=".26"/>
      <stop offset=".8" stop-color="#658ca3" stop-opacity=".41"/>
      <stop offset=".88" stop-color="#6f75a0" stop-opacity=".6"/>
      <stop offset=".95" stop-color="#7b5a9d" stop-opacity=".82"/>
      <stop offset="1" stop-color="#85459b"/>
    </radialGradient>
    <radialGradient id="radial-gradient-6" cx="1661.09" cy="829" fx="1661.09" fy="829" r="144.41" gradientTransform="translate(-1170.57 -291.76) rotate(45) scale(1 -1)" gradientUnits="userSpaceOnUse">
      <stop offset="0" stop-color="#506ab2" stop-opacity="0"/>
      <stop offset=".35" stop-color="#506ab2" stop-opacity="0"/>
      <stop offset=".5" stop-color="#506ab2" stop-opacity=".05"/>
      <stop offset=".61" stop-color="#506ab2" stop-opacity=".12"/>
      <stop offset=".7" stop-color="#506ab2" stop-opacity=".22"/>
      <stop offset=".78" stop-color="#506ab2" stop-opacity=".35"/>
      <stop offset=".85" stop-color="#506ab2" stop-opacity=".51"/>
      <stop offset=".92" stop-color="#506ab2" stop-opacity=".7"/>
      <stop offset=".98" stop-color="#506ab2" stop-opacity=".91"/>
      <stop offset="1" stop-color="#506ab2"/>
    </radialGradient>
    <radialGradient id="radial-gradient-7" cx="473.04" cy="616.57" fx="473.04" fy="616.57" r="148.36" gradientTransform="translate(0 867.95) scale(1 -1)" gradientUnits="userSpaceOnUse">
      <stop offset="0" stop-color="#d26caa" stop-opacity="0"/>
      <stop offset=".34" stop-color="#d26caa" stop-opacity="0"/>
      <stop offset=".48" stop-color="#d26caa" stop-opacity=".04"/>
      <stop offset=".59" stop-color="#d26caa" stop-opacity=".1"/>
      <stop offset=".68" stop-color="#d26caa" stop-opacity=".19"/>
      <stop offset=".75" stop-color="#d26caa" stop-opacity=".3"/>
      <stop offset=".82" stop-color="#d26caa" stop-opacity=".43"/>
      <stop offset=".89" stop-color="#d26caa" stop-opacity=".59"/>
      <stop offset=".94" stop-color="#d26caa" stop-opacity=".78"/>
      <stop offset="1" stop-color="#d26caa" stop-opacity=".98"/>
      <stop offset="1" stop-color="#d26caa"/>
    </radialGradient>
    <radialGradient id="radial-gradient-8" cx="-277.07" cy="2059.09" fx="-277.07" fy="2059.09" r="148.36" gradientTransform="translate(2367.16 130) rotate(-90) scale(1 -1)" gradientUnits="userSpaceOnUse">
      <stop offset="0" stop-color="#69cdea" stop-opacity="0"/>
      <stop offset=".33" stop-color="#69cdea" stop-opacity="0"/>
      <stop offset=".47" stop-color="#69cdea" stop-opacity=".04"/>
      <stop offset=".57" stop-color="#69cdea" stop-opacity=".09"/>
      <stop offset=".66" stop-color="#69cdea" stop-opacity=".17"/>
      <stop offset=".73" stop-color="#69cdea" stop-opacity=".27"/>
      <stop offset=".8" stop-color="#69cdea" stop-opacity=".39"/>
      <stop offset=".86" stop-color="#69cdea" stop-opacity=".53"/>
      <stop offset=".92" stop-color="#69cdea" stop-opacity=".7"/>
      <stop offset=".97" stop-color="#69cdea" stop-opacity=".89"/>
      <stop offset="1" stop-color="#69cdea"/>
    </radialGradient>
    <clipPath id="clippath">
      <rect class="cls-1" width="927.5" height="809.15"/>
    </clipPath>
  </defs>
  <g id="Layer_1-2" data-name="Layer 1">
    <g id="solid">
      <g id="BACK_GRAPHIC" data-name="BACK GRAPHIC">
        <g id="environ_1" data-name="environ 1">
          <path class="cls-40" d="m422.24,185.95c21.6,7.21,40.04,25.5,40.96,40.66s8.46,38.3,16.77,51.44c8.3,13.14,8.97,38.64,1.51,56.67-7.48,18.04-13.57,42.63-13.54,54.65s-8.97,20.34-19.98,18.5-35.6.16-54.65,4.45c-19.06,4.29-52.43,2.24-74.16-4.57l-10.99-3.44c-21.73-6.81-42.99-18.01-47.23-24.88-4.23-6.87-21.9-24.58-39.26-39.34l-13.35-11.36c-17.35-14.76-24.42-44.04-15.7-65.09l21.57-52.08c8.72-21.04,34.42-36.76,57.12-34.93l6.9.56c22.7,1.83,50.09-2.1,60.84-8.73,10.77-6.63,24.16-8.65,29.76-4.5,5.6,4.15,27.88,13.44,49.48,20.65l3.91,1.3.02.02Z"/>
        </g>
        <g id="environ_1-2" data-name="environ 1-2">
          <path class="cls-39" d="m242.48,457.99c7.21-21.6,25.5-40.04,40.66-40.96,15.16-.92,38.3-8.46,51.44-16.77,13.14-8.3,38.64-8.97,56.67-1.51,18.04,7.48,42.63,13.57,54.65,13.54,12.03-.03,20.34,8.97,18.5,19.98-1.85,11.01.16,35.6,4.45,54.65,4.29,19.06,2.24,52.43-4.57,74.16l-3.44,10.99c-6.81,21.73-18.01,42.99-24.88,47.23-6.87,4.23-24.58,21.9-39.34,39.26l-11.36,13.35c-14.76,17.35-44.04,24.42-65.09,15.7l-52.08-21.57c-21.04-8.72-36.76-34.42-34.93-57.12l.56-6.9c1.83-22.7-2.1-50.09-8.73-60.84-6.63-10.77-8.65-24.16-4.5-29.76,4.15-5.61,13.44-27.88,20.65-49.48l1.3-3.91.02-.02Z"/>
        </g>
        <g id="environ_1-3" data-name="environ 1-3">
          <path class="cls-35" d="m341.36,603.98c-10.18-20.38-10.28-46.35-.21-57.71,10.07-11.36,21.11-33.07,24.53-48.23,3.42-15.16,20.98-33.67,39.02-41.13,18.04-7.48,39.73-20.55,48.23-29.08,8.49-8.53,20.73-8.05,27.2,1.05s25.29,25.07,41.8,35.5c16.51,10.43,38.65,35.49,49.21,55.66l5.33,10.2c10.56,20.19,17.67,43.12,15.8,51-1.86,7.86-1.89,32.86-.06,55.58l1.42,17.47c1.83,22.7-13.89,48.4-34.93,57.12l-52.08,21.57c-21.04,8.72-50.33,1.65-65.09-15.7l-4.49-5.28c-14.76-17.35-36.9-33.93-49.2-36.86s-23.21-10.96-24.24-17.86c-1.03-6.9-10.2-29.22-20.39-49.6l-1.85-3.69h0Z"/>
        </g>
        <g id="environ_1-4" data-name="environ 1-4">
          <path class="cls-36" d="m514.48,637.51c-21.6-7.21-40.04-25.5-40.96-40.66s-8.46-38.3-16.77-51.44c-8.3-13.14-8.97-38.64-1.51-56.67,7.48-18.04,8.27-47.18,8.24-59.2-.03-12.03,8.97-20.34,19.98-18.5,11.01,1.85,40.9,4.39,59.95.1s52.43-2.24,74.16,4.57l10.99,3.44c21.73,6.81,42.99,18.01,47.23,24.88s21.9,24.58,39.26,39.34l13.35,11.36c17.35,14.76,24.42,44.04,15.7,65.09l-21.57,52.08c-8.72,21.04-34.42,36.76-57.12,34.93l-6.9-.56c-22.7-1.83-50.09,2.1-60.84,8.73-10.77,6.63-24.16,8.65-29.76,4.5-5.6-4.15-27.88-13.44-49.48-20.65l-3.91-1.3-.02-.02Z"/>
        </g>
        <g id="environ_1-5" data-name="environ 1-5">
          <path class="cls-34" d="m660.82,538.8c-20.38,10.18-46.35,10.28-57.71.21-11.37-10.07-33.07-21.11-48.23-24.53-15.16-3.42-33.67-20.98-41.13-39.02-7.46-18.04-20.55-39.73-29.08-48.23-8.53-8.49-8.05-20.73,1.05-27.2s25.07-25.29,35.5-41.8,35.49-38.65,55.66-49.21l10.2-5.33c20.19-10.56,43.12-17.67,51-15.8s32.86,1.89,55.58.06l17.47-1.42c22.7-1.83,48.4,13.89,57.12,34.93l21.57,52.08c8.72,21.04,1.65,50.33-15.7,65.09l-5.28,4.49c-17.35,14.76-33.93,36.9-36.86,49.2-2.93,12.3-10.96,23.21-17.86,24.24-6.9,1.03-29.22,10.2-49.6,20.39l-3.69,1.85h0Z"/>
        </g>
        <g id="environ_1-6" data-name="environ 1-6">
          <path class="cls-33" d="m694.21,365.61c-7.21,21.6-25.5,40.04-40.66,40.96s-38.3,8.46-51.44,16.77c-13.14,8.3-38.64,8.97-56.67,1.51-18.04-7.48-42.63-13.57-54.65-13.54-12.03.02-20.34-8.97-18.5-19.98,1.85-11.01-.16-35.6-4.45-54.65-4.29-19.06-2.24-52.43,4.57-74.16l3.44-10.99c6.81-21.73,18.01-42.99,24.88-47.23,6.87-4.23,24.58-21.9,39.34-39.26l11.36-13.35c14.76-17.35,44.04-24.42,65.09-15.7l52.08,21.57c21.04,8.72,36.76,34.42,34.93,57.12l-.56,6.9c-1.83,22.7,2.1,50.09,8.73,60.84,6.63,10.77,8.65,24.16,4.5,29.76-4.15,5.61-13.44,27.88-20.65,49.48l-1.3,3.91-.02.02Z"/>
        </g>
        <g id="environ_1-7" data-name="environ 1-7">
          <path class="cls-38" d="m595.4,219.46c10.18,20.38,10.28,46.35.21,57.71-10.07,11.37-21.11,33.07-24.53,48.23-3.42,15.16-20.98,33.67-39.02,41.13s-39.73,34.87-48.23,43.39c-8.49,8.53-20.73,8.05-27.2-1.05-6.47-9.1-25.29-39.38-41.8-49.82-16.51-10.43-38.65-35.49-49.21-55.66l-5.33-10.2c-10.56-20.19-17.67-43.12-15.8-51,1.86-7.86,1.89-32.86.06-55.58l-1.42-17.47c-1.83-22.7,13.89-48.4,34.93-57.12l52.08-21.57c21.04-8.72,50.33-1.65,65.09,15.7l4.49,5.28c14.76,17.35,36.9,33.93,49.2,36.86,12.3,2.93,23.21,10.96,24.24,17.86,1.03,6.9,10.2,29.22,20.39,49.6l1.85,3.69h0Z"/>
        </g>
        <g id="environ_1-8" data-name="environ 1-8">
          <path class="cls-37" d="m276.16,284.72c20.38-10.18,46.35-10.28,57.71-.21,11.37,10.07,33.07,21.11,48.23,24.53,15.16,3.42,33.67,20.98,41.13,39.02,7.48,18.04,34.87,39.73,43.39,48.23s8.05,20.73-1.05,27.2c-9.1,6.47-39.38,25.29-49.82,41.8-10.43,16.51-35.49,38.65-55.66,49.21l-10.2,5.33c-20.19,10.56-43.12,17.67-51,15.8s-32.86-1.89-55.58-.06l-17.47,1.42c-22.7,1.83-48.4-13.89-57.12-34.93l-21.57-52.08c-8.72-21.04-1.65-50.33,15.7-65.09l5.28-4.49c17.35-14.76,33.93-36.9,36.86-49.2,2.93-12.3,10.96-23.21,17.86-24.24s29.22-10.2,49.6-20.39l3.69-1.85h0Z"/>
        </g>
      </g>
    </g>
    <g id="FRONT_GRAPHIC" data-name="FRONT GRAPHIC">
      <g class="cls-27">
        <text class="cls-25" transform="translate(288.77 24.93)"><tspan x="0" y="0">P</tspan></text>
        <text class="cls-4" transform="translate(301.71 24.93)"><tspan x="0" y="0">H</tspan></text>
        <text class="cls-13" transform="translate(315.99 24.93)"><tspan x="0" y="0">Y</tspan></text>
        <text class="cls-25" transform="translate(328.03 24.93)"><tspan x="0" y="0">S</tspan></text>
        <text class="cls-25" transform="translate(340.48 24.93)"><tspan x="0" y="0">ICA</tspan></text>
        <text class="cls-13" transform="translate(373.16 24.93)"><tspan x="0" y="0">L</tspan></text>
      </g>
      <g class="cls-27">
        <text class="cls-21" transform="translate(525.36 42.93)"><tspan x="0" y="0">EM</tspan></text>
        <text class="cls-14" transform="translate(554.23 42.93)"><tspan x="0" y="0">O</tspan></text>
        <text class="cls-7" transform="translate(567.66 42.93)"><tspan x="0" y="0">T</tspan></text>
        <text class="cls-7" transform="translate(579.12 42.93)"><tspan x="0" y="0">IONA</tspan></text>
        <text class="cls-14" transform="translate(627.1 42.93)"><tspan x="0" y="0">L</tspan></text>
      </g>
      <g class="cls-27">
        <text class="cls-10" transform="translate(764.82 96.19)"><tspan x="0" y="0">I</tspan></text>
        <text class="cls-8" transform="translate(771.27 96.19)"><tspan x="0" y="0">NTE</tspan></text>
        <text class="cls-8" transform="translate(808.86 96.19)"><tspan x="0" y="0">LL</tspan></text>
        <text class="cls-8" transform="translate(830.82 96.19)"><tspan x="0" y="0">ECT</tspan></text>
        <text class="cls-20" transform="translate(867 96.19)"><tspan x="0" y="0">U</tspan></text>
        <text class="cls-10" transform="translate(880.86 96.19)"><tspan x="0" y="0">A</tspan></text>
        <text class="cls-20" transform="translate(894.04 96.19)"><tspan x="0" y="0">L</tspan></text>
      </g>
      <g class="cls-27">
        <text class="cls-9" transform="translate(796.56 714.78)"><tspan x="0" y="0">S</tspan></text>
        <text class="cls-9" transform="translate(809.01 714.78)"><tspan x="0" y="0">PIRI</tspan></text>
        <text class="cls-11" transform="translate(848.04 714.78)"><tspan x="0" y="0">T</tspan></text>
        <text class="cls-19" transform="translate(859.5 714.78)"><tspan x="0" y="0">U</tspan></text>
        <text class="cls-11" transform="translate(873.35 714.78)"><tspan x="0" y="0">A</tspan></text>
        <text class="cls-19" transform="translate(886.54 714.78)"><tspan x="0" y="0">L</tspan></text>
      </g>
      <g class="cls-27">
        <text class="cls-5" transform="translate(569.27 778.02)"><tspan x="0" y="0">S</tspan></text>
        <text class="cls-12" transform="translate(581.62 778.02)"><tspan x="0" y="0">O</tspan></text>
        <text class="cls-12" transform="translate(595.52 778.02)"><tspan x="0" y="0">C</tspan></text>
        <text class="cls-12" transform="translate(608.53 778.02)"><tspan x="0" y="0">IA</tspan></text>
        <text class="cls-18" transform="translate(628.17 778.02)"><tspan x="0" y="0">L</tspan></text>
      </g>
      <g class="cls-27">
        <text class="cls-22" transform="translate(289.62 804.08)"><tspan x="0" y="0">F</tspan></text>
        <text class="cls-22" transform="translate(301.04 804.08)"><tspan x="0" y="0">I</tspan></text>
        <text class="cls-29" transform="translate(307.5 804.08)"><tspan x="0" y="0">N</tspan></text>
        <text class="cls-22" transform="translate(321.92 804.08)"><tspan x="0" y="0">A</tspan></text>
        <text class="cls-29" transform="translate(335.11 804.08)"><tspan x="0" y="0">NC</tspan></text>
        <text class="cls-22" transform="translate(362.55 804.08)"><tspan x="0" y="0">IA</tspan></text>
        <text class="cls-15" transform="translate(382.2 804.08)"><tspan x="0" y="0">L</tspan></text>
      </g>
      <g class="cls-27">
        <text class="cls-6" transform="translate(15.24 669.06)"><tspan x="0" y="0">OCCU</tspan></text>
        <text class="cls-24" transform="translate(69.34 669.06)"><tspan x="0" y="0">P</tspan></text>
        <text class="cls-26" transform="translate(81.43 669.06)"><tspan x="0" y="0">A</tspan></text>
        <text class="cls-6" transform="translate(93.5 669.06)"><tspan x="0" y="0">T</tspan></text>
        <text class="cls-6" transform="translate(104.96 669.06)"><tspan x="0" y="0">IO</tspan></text>
        <text class="cls-30" transform="translate(125.3 669.06)"><tspan x="0" y="0">N</tspan></text>
        <text class="cls-6" transform="translate(139.72 669.06)"><tspan x="0" y="0">A</tspan></text>
        <text class="cls-17" transform="translate(152.91 669.06)"><tspan x="0" y="0">L</tspan></text>
      </g>
      <g class="cls-27">
        <text class="cls-23" transform="translate(12.23 116.94)"><tspan x="0" y="0">E</tspan></text>
        <text class="cls-28" transform="translate(23.95 116.94)"><tspan x="0" y="0">N</tspan></text>
        <text class="cls-28" transform="translate(38.39 116.94)"><tspan x="0" y="0">VIRO</tspan></text>
        <text class="cls-28" transform="translate(85.22 116.94)"><tspan x="0" y="0">NMEN</tspan></text>
        <text class="cls-3" transform="translate(142.94 116.94)"><tspan x="0" y="0">T</tspan></text>
        <text class="cls-23" transform="translate(153.08 116.94)"><tspan x="0" y="0">A</tspan></text>
        <text class="cls-16" transform="translate(166.27 116.94)"><tspan x="0" y="0">L</tspan></text>
      </g>
      <g class="cls-31">
        <g>
          <path class="cls-32" d="m293.86,233.61c1.35,0,2.45-1.1,2.45-2.45s-1.1-2.45-2.45-2.45-2.45,1.1-2.45,2.45,1.1,2.45,2.45,2.45"/>
          <path class="cls-32" d="m465.34,162.64c1.35,0,2.45-1.1,2.45-2.45s-1.1-2.45-2.45-2.45-2.45,1.1-2.45,2.45,1.1,2.45,2.45,2.45"/>
          <path class="cls-32" d="m636.83,233.61c1.35,0,2.45-1.1,2.45-2.45s-1.1-2.45-2.45-2.45-2.45,1.1-2.45,2.45,1.1,2.45,2.45,2.45"/>
          <path class="cls-32" d="m707.86,405.08c1.35,0,2.45-1.1,2.45-2.45s-1.1-2.45-2.45-2.45-2.45,1.1-2.45,2.45,1.1,2.45,2.45,2.45"/>
          <path class="cls-32" d="m636.79,571.74c-1.35,0-2.45,1.1-2.45,2.45s1.1,2.45,2.45,2.45,2.45-1.1,2.45-2.45-1.1-2.45-2.45-2.45"/>
          <path class="cls-32" d="m465.31,642.72c-1.35,0-2.45,1.1-2.45,2.45s1.1,2.45,2.45,2.45,2.45-1.1,2.45-2.45-1.1-2.45-2.45-2.45"/>
          <path class="cls-32" d="m293.82,571.74c-1.35,0-2.45,1.1-2.45,2.45s1.1,2.45,2.45,2.45,2.45-1.1,2.45-2.45-1.1-2.45-2.45-2.45"/>
          <path class="cls-32" d="m222.79,400.28c-1.35,0-2.45,1.1-2.45,2.45s1.1,2.45,2.45,2.45,2.45-1.1,2.45-2.45-1.1-2.45-2.45-2.45"/>
          <path class="cls-32" d="m97.48,636.23c-1.35,0-2.45,1.1-2.45,2.45s1.1,2.45,2.45,2.45,2.45-1.1,2.45-2.45-1.1-2.45-2.45-2.45"/>
          <path class="cls-32" d="m341.85,770.81c-1.35,0-2.45,1.1-2.45,2.45s1.1,2.45,2.45,2.45,2.45-1.1,2.45-2.45-1.1-2.45-2.45-2.45"/>
          <path class="cls-32" d="m586.87,746.34c-1.35,0-2.45,1.1-2.45,2.45s1.1,2.45,2.45,2.45,2.45-1.1,2.45-2.45-1.1-2.45-2.45-2.45"/>
          <path class="cls-32" d="m831.56,685.17c-1.35,0-2.45,1.1-2.45,2.45s1.1,2.45,2.45,2.45,2.45-1.1,2.45-2.45-1.1-2.45-2.45-2.45"/>
          <path class="cls-32" d="m97.48,131.36c-1.35,0-2.45,1.1-2.45,2.45s1.1,2.45,2.45,2.45,2.45-1.1,2.45-2.45-1.1-2.45-2.45-2.45"/>
          <path class="cls-32" d="m342.01,37.87c-1.35,0-2.45,1.1-2.45,2.45s1.1,2.45,2.45,2.45,2.45-1.1,2.45-2.45-1.1-2.45-2.45-2.45"/>
          <path class="cls-32" d="m586.87,55c-1.35,0-2.45,1.1-2.45,2.45s1.1,2.45,2.45,2.45,2.45-1.1,2.45-2.45-1.1-2.45-2.45-2.45"/>
          <path class="cls-32" d="m831.56,111.28c-1.35,0-2.45,1.1-2.45,2.45s1.1,2.45,2.45,2.45,2.45-1.1,2.45-2.45-1.1-2.45-2.45-2.45"/>
        </g>
      </g>
      <line class="cls-2" x1="636.3" y1="574.08" x2="831.56" y2="687.62"/>
      <line class="cls-2" x1="465.33" y1="644.55" x2="586.87" y2="748.79"/>
      <line class="cls-2" x1="293.24" y1="573.78" x2="341.85" y2="773.26"/>
      <line class="cls-2" x1="222.77" y1="402.67" x2="97.48" y2="638.68"/>
      <line class="cls-2" x1="707.75" y1="402.67" x2="831.56" y2="114.05"/>
      <line class="cls-2" x1="636.79" y1="231.02" x2="586.87" y2="57.77"/>
      <line class="cls-2" x1="465.54" y1="160.06" x2="342.01" y2="40.32"/>
      <line class="cls-2" x1="293.73" y1="230.53" x2="97.48" y2="133.81"/>
    </g>
  </g>
</svg>