<?xml version="1.0" encoding="UTF-8"?>
<svg id="Layer_2" data-name="Layer 2" xmlns="http://www.w3.org/2000/svg" xmlns:xlink="http://www.w3.org/1999/xlink" viewBox="0 0 857.55 857.55">
  <defs>
    <style>
      .cls-1 {
        fill: none;
      }

      .cls-2 {
        clip-path: url(#clippath);
      }

      .cls-3 {
        fill: url(#radial-gradient-6);
      }

      .cls-4 {
        fill: url(#radial-gradient-5);
      }

      .cls-5 {
        fill: url(#radial-gradient-3);
      }

      .cls-6 {
        fill: url(#radial-gradient-4);
      }

      .cls-7 {
        fill: url(#radial-gradient-8);
      }

      .cls-8 {
        fill: url(#radial-gradient-7);
      }

      .cls-9 {
        fill: url(#radial-gradient-2);
      }

      .cls-10 {
        fill: url(#radial-gradient);
      }
    </style>
    <clipPath id="clippath">
      <path class="cls-1" d="m512.73,412.02c.45,15.82-12.67,29.35-20.83,41.26-7.66,11.2-20.34,28.49-49.15,29.92-23.65,1.18-36.3-10.86-47.08-25.15-15.17-20.12-20.16-24.19-20.16-44.31s15.35-33.4,27.77-46.41c12.68-13.28,28.8-14.12,48.84-14.2,13.25-.05,23.83,10.86,33.19,18.49,17.1,13.95,27.02,26.7,27.41,40.39ZM428.77,0C192.37,0,0,192.34,0,428.77s192.37,428.77,428.77,428.77,428.77-192.37,428.77-428.77S665.2,0,428.77,0Z"/>
    </clipPath>
    <radialGradient id="radial-gradient" cx="449.97" cy="417.06" fx="449.97" fy="417.06" r="355.3" gradientUnits="userSpaceOnUse">
      <stop offset="0" stop-color="#d26caa" stop-opacity="0"/>
      <stop offset=".34" stop-color="#d26caa" stop-opacity="0"/>
      <stop offset=".48" stop-color="#d26caa" stop-opacity=".04"/>
      <stop offset=".59" stop-color="#d26caa" stop-opacity=".1"/>
      <stop offset=".68" stop-color="#d26caa" stop-opacity=".19"/>
      <stop offset=".75" stop-color="#d26caa" stop-opacity=".3"/>
      <stop offset=".82" stop-color="#d26caa" stop-opacity=".43"/>
      <stop offset=".89" stop-color="#d26caa" stop-opacity=".59"/>
      <stop offset=".94" stop-color="#d26caa" stop-opacity=".78"/>
      <stop offset="1" stop-color="#d26caa" stop-opacity=".98"/>
      <stop offset="1" stop-color="#d26caa"/>
    </radialGradient>
    <radialGradient id="radial-gradient-2" cx="443.36" cy="459.11" fx="443.36" fy="459.11" r="337.2" gradientUnits="userSpaceOnUse">
      <stop offset="0" stop-color="#85499c" stop-opacity="0"/>
      <stop offset=".36" stop-color="#85499c" stop-opacity=".01"/>
      <stop offset=".52" stop-color="#85499c" stop-opacity=".06"/>
      <stop offset=".63" stop-color="#85499c" stop-opacity=".14"/>
      <stop offset=".72" stop-color="#85499c" stop-opacity=".25"/>
      <stop offset=".81" stop-color="#85499c" stop-opacity=".4"/>
      <stop offset=".88" stop-color="#85499c" stop-opacity=".58"/>
      <stop offset=".95" stop-color="#85499c" stop-opacity=".79"/>
      <stop offset="1" stop-color="#85499c"/>
    </radialGradient>
    <radialGradient id="radial-gradient-3" cx="454.03" cy="461.18" fx="665.67" fy="273.86" r="282.63" gradientUnits="userSpaceOnUse">
      <stop offset="0" stop-color="#50c0a9" stop-opacity="0"/>
      <stop offset=".39" stop-color="#50c0a9" stop-opacity="0"/>
      <stop offset=".53" stop-color="#50c0a9" stop-opacity=".05"/>
      <stop offset=".63" stop-color="#50c0a9" stop-opacity=".11"/>
      <stop offset=".72" stop-color="#50c0a9" stop-opacity=".2"/>
      <stop offset=".79" stop-color="#50c0a9" stop-opacity=".31"/>
      <stop offset=".85" stop-color="#50c0a9" stop-opacity=".45"/>
      <stop offset=".91" stop-color="#50c0a9" stop-opacity=".62"/>
      <stop offset=".96" stop-color="#50c0a9" stop-opacity=".81"/>
      <stop offset="1" stop-color="#50c0a9"/>
    </radialGradient>
    <radialGradient id="radial-gradient-4" cx="1945.07" cy="1375.32" fx="1945.07" fy="1375.32" r="297.84" gradientTransform="translate(2825.73 147.11) rotate(137.75)" gradientUnits="userSpaceOnUse">
      <stop offset="0" stop-color="#506ab2" stop-opacity="0"/>
      <stop offset=".35" stop-color="#506ab2" stop-opacity=".01"/>
      <stop offset=".5" stop-color="#506ab2" stop-opacity=".05"/>
      <stop offset=".61" stop-color="#506ab2" stop-opacity=".12"/>
      <stop offset=".7" stop-color="#506ab2" stop-opacity=".22"/>
      <stop offset=".78" stop-color="#506ab2" stop-opacity=".35"/>
      <stop offset=".85" stop-color="#506ab2" stop-opacity=".51"/>
      <stop offset=".92" stop-color="#506ab2" stop-opacity=".7"/>
      <stop offset=".98" stop-color="#506ab2" stop-opacity=".91"/>
      <stop offset="1" stop-color="#506ab2"/>
    </radialGradient>
    <radialGradient id="radial-gradient-5" cx="308.09" cy="419.72" fx="308.09" fy="419.72" r="286.86" gradientTransform="translate(149.24 70.57) scale(.89)" gradientUnits="userSpaceOnUse">
      <stop offset="0" stop-color="#69cdea" stop-opacity="0"/>
      <stop offset=".33" stop-color="#69cdea" stop-opacity="0"/>
      <stop offset=".47" stop-color="#69cdea" stop-opacity=".04"/>
      <stop offset=".57" stop-color="#69cdea" stop-opacity=".09"/>
      <stop offset=".66" stop-color="#69cdea" stop-opacity=".17"/>
      <stop offset=".73" stop-color="#69cdea" stop-opacity=".27"/>
      <stop offset=".8" stop-color="#69cdea" stop-opacity=".39"/>
      <stop offset=".86" stop-color="#69cdea" stop-opacity=".53"/>
      <stop offset=".92" stop-color="#69cdea" stop-opacity=".7"/>
      <stop offset=".97" stop-color="#69cdea" stop-opacity=".89"/>
      <stop offset="1" stop-color="#69cdea"/>
    </radialGradient>
    <radialGradient id="radial-gradient-6" cx="344.21" cy="418.76" fx="344.21" fy="418.76" r="270.69" gradientTransform="translate(149.24 70.57) scale(.89)" gradientUnits="userSpaceOnUse">
      <stop offset="0" stop-color="#00a45b" stop-opacity="0"/>
      <stop offset=".36" stop-color="#00a45b" stop-opacity=".01"/>
      <stop offset=".51" stop-color="#00a45b" stop-opacity=".06"/>
      <stop offset=".62" stop-color="#00a45b" stop-opacity=".13"/>
      <stop offset=".71" stop-color="#00a45b" stop-opacity=".24"/>
      <stop offset=".8" stop-color="#00a45b" stop-opacity=".38"/>
      <stop offset=".87" stop-color="#00a45b" stop-opacity=".55"/>
      <stop offset=".93" stop-color="#00a45b" stop-opacity=".76"/>
      <stop offset=".99" stop-color="#00a45b" stop-opacity=".99"/>
      <stop offset="1" stop-color="#00a45b"/>
    </radialGradient>
    <radialGradient id="radial-gradient-7" cx="465.77" cy="432.87" fx="465.77" fy="432.87" r="247.3" gradientUnits="userSpaceOnUse">
      <stop offset="0" stop-color="#9aca42" stop-opacity="0"/>
      <stop offset=".34" stop-color="#9aca42" stop-opacity=".01"/>
      <stop offset=".48" stop-color="#9aca42" stop-opacity=".05"/>
      <stop offset=".59" stop-color="#9aca42" stop-opacity=".11"/>
      <stop offset=".68" stop-color="#9aca42" stop-opacity=".2"/>
      <stop offset=".76" stop-color="#9aca42" stop-opacity=".31"/>
      <stop offset=".83" stop-color="#9aca42" stop-opacity=".45"/>
      <stop offset=".89" stop-color="#9aca42" stop-opacity=".62"/>
      <stop offset=".95" stop-color="#9aca42" stop-opacity=".81"/>
      <stop offset="1" stop-color="#9aca42"/>
    </radialGradient>
    <radialGradient id="radial-gradient-8" cx="470.7" cy="432.31" fx="470.7" fy="432.31" r="215.43" gradientUnits="userSpaceOnUse">
      <stop offset="0" stop-color="#ef739a" stop-opacity=".1"/>
      <stop offset=".04" stop-color="#ef739a" stop-opacity=".1"/>
      <stop offset=".32" stop-color="#ef739a" stop-opacity=".11"/>
      <stop offset=".46" stop-color="#ef739a" stop-opacity=".14"/>
      <stop offset=".57" stop-color="#ef739a" stop-opacity=".2"/>
      <stop offset=".66" stop-color="#ef739a" stop-opacity=".27"/>
      <stop offset=".74" stop-color="#ef739a" stop-opacity=".37"/>
      <stop offset=".81" stop-color="#ef739a" stop-opacity=".5"/>
      <stop offset=".88" stop-color="#ef739a" stop-opacity=".65"/>
      <stop offset=".94" stop-color="#ef739a" stop-opacity=".81"/>
      <stop offset="1" stop-color="#ef739a"/>
    </radialGradient>
  </defs>
  <g id="FRONT_GRAPHIC" data-name="FRONT GRAPHIC">
    <g id="GRAPHIC">
      <g class="cls-2">
        <g id="BUBBLES">
          <g id="PHYS">
            <path class="cls-10" d="m740.24,495.67c-8.48,11.54-16.22,32.67-17.19,46.95l-8.41,122.89c-.98,14.29-13.39,27.53-27.58,29.43l-99.76,13.35c-14.19,1.9-35.21,10.44-46.71,18.97l-70.92,52.64c-11.5,8.53-30.81,9.26-42.92,1.62l-190.4-120.16c-12.11-7.64-27.17-24.42-33.47-37.28l-87.91-179.53c-6.3-12.86-7.02-34.23-1.6-47.48l78.78-192.83c5.42-13.26,19.99-29.96,32.39-37.12l196.29-113.38c12.4-7.16,33.37-8.55,46.6-3.07l221.27,91.48c13.23,5.47,27.55,21.13,31.81,34.8l67.88,217.82c4.26,13.67.81,34.3-7.67,45.84l-40.47,55.07Z"/>
          </g>
          <g id="INTELL">
            <path class="cls-9" d="m629.67,555.33c-11.94,7.9-29.13,23.44-38.19,34.52l-131.83,161.27c-9.06,11.09-24.98,12.09-35.37,2.24l-141.3-134.05c-10.39-9.86-27.65-25.7-38.36-35.2l-163.38-145.06c-10.71-9.51-10.24-24.5,1.04-33.33l93.72-73.3c11.28-8.82,18.9-27.64,16.93-41.83l-15.61-112.62c-1.97-14.18,7.74-22.74,21.56-19.01l90.4,24.37c13.83,3.73,36.65,8.96,50.72,11.63l7.06,1.34c14.07,2.67,35.47-1.42,47.56-9.09l25.76-16.34c12.09-7.67,33.69-13.36,47.99-12.64l198.16,9.94c14.3.72,31.24,11.78,37.65,24.59l106.11,212.08c6.41,12.81,1.88,29.75-10.06,37.65l-170.56,112.85Z"/>
          </g>
          <g id="FINAN">
            <path class="cls-5" d="m431.18,196c12.54-6.92,34.5-13.2,48.8-13.97l185.14-9.95c14.3-.77,28.09,10.13,30.64,24.22l33.59,185.51c2.55,14.09-2.5,34.91-11.22,46.27l-89.9,117.09c-8.72,11.36-23.69,29.36-33.27,40.01l-135.74,150.9c-9.58,10.65-28.81,16.64-42.74,13.31l-217.7-51.97c-13.93-3.32-23.04-17.54-20.24-31.58l46.35-232.88c2.8-14.04,9.55-36.36,15.01-49.6l33.81-81.92c5.46-13.24,20.19-29.72,32.73-36.64l124.74-68.8Z"/>
          </g>
          <g id="EMO">
            <path class="cls-6" d="m408.95,718.57c12.85,6.33,34.65,8.39,48.46,4.59l200.62-55.29c13.8-3.8,27.05-18.47,29.44-32.59l10.41-61.55c2.39-14.12,3.55-37.36,2.58-51.65l-.75-11.13c-.97-14.29,7.23-33.49,18.22-42.67l36.09-30.16c10.99-9.18,13.77-26.63,6.19-38.78l-40.34-64.6c-7.58-12.15-19.19-32.48-25.78-45.19l-27.95-53.87c-6.6-12.71-23.52-25.17-37.62-27.7l-68.56-12.28c-14.1-2.52-33.61-13.17-43.36-23.65l-55.38-59.51c-9.76-10.48-25.35-10.15-34.66.73l-51.92,60.72c-9.31,10.88-28.45,21.87-42.54,24.41l-70.5,12.72c-14.09,2.54-28.7,15.93-32.45,29.74l-18.57,68.28c-3.76,13.82-15.68,32.8-26.5,42.18l-60.87,52.8c-10.82,9.38-10.7,24.6.25,33.82l46.27,38.95c10.96,9.22,24.29,27.63,29.64,40.92l39.24,97.5c5.35,13.28,20.23,29.33,33.08,35.66l137.29,67.62Z"/>
          </g>
          <g id="OCCU">
            <path class="cls-4" d="m695.57,397.17c4.8,13.49.96,33.29-8.54,44.01l-73.94,83.39c-9.5,10.71-25.75,27.57-36.1,37.46l-112.48,107.37c-10.36,9.89-28.09,10.79-39.4,2.02l-48.48-37.63c-11.31-8.78-32.19-17.42-46.4-19.19l-33.65-4.21c-14.21-1.78-32.6-12.8-40.86-24.49l-101.43-143.48c-8.27-11.69-7.46-30.2,1.79-41.13l105.89-125.13c9.25-10.93,28.15-16.89,41.99-13.24l42.3,11.14c13.85,3.65,33.24-1.86,43.11-12.24l33.65-35.42c9.86-10.38,29.59-17.76,43.85-16.39l141.93,13.63c14.25,1.37,29.84,13.53,34.65,27.02l52.14,146.51Z"/>
          </g>
          <g id="SPIRIT">
            <path class="cls-3" d="m698.83,384.26c7.45,12.23,10.95,33.66,7.78,47.62l-40.98,180.36c-3.17,13.96-17.34,27.22-31.48,29.45l-181.9,28.73c-14.14,2.23-33.28-4.89-42.52-15.82l-36.95-43.73c-9.24-10.94-27.81-23.9-41.26-28.81l-35.06-12.8c-13.45-4.91-30.12-19.18-37.05-31.72l-50.62-91.62c-6.93-12.53-8.2-33.65-2.83-46.92l50.03-123.67c5.37-13.27,21.32-22.19,35.44-19.82l47,7.9c14.12,2.37,34.74-3.11,45.82-12.18l29.05-23.79c11.08-9.07,31.69-14.51,45.8-12.07l127.29,21.98c14.11,2.44,31.75,14.43,39.2,26.66l73.26,120.26Z"/>
          </g>
          <g id="ENVIRON">
            <path class="cls-8" d="m683.47,406.08c11.46,8.59,13.01,24.35,3.46,35.01l-35.67,39.82c-9.55,10.67-18.33,31.07-19.51,45.34l-3.04,36.89c-1.18,14.27-13.81,26.93-28.08,28.13l-62.99,5.3c-14.27,1.2-32,12.21-39.4,24.47l-41.35,68.49c-7.4,12.26-19.1,12.02-25.99-.53l-42.61-77.56c-6.89-12.55-23.22-27.63-36.28-33.5l-17.55-7.9c-13.06-5.88-24.64-22.37-25.73-36.64l-3-39.19c-1.09-14.28-11.87-32.24-23.96-39.93l-31.92-20.29c-12.08-7.68-15.13-23.48-6.78-35.11l27-37.56c8.36-11.63,13.05-32.66,10.42-46.74l-8.75-46.95c-2.62-14.08,5.82-30.61,18.75-36.74l128.43-60.87c12.94-6.13,30.96-2.09,40.05,8.97l33.36,40.65c9.09,11.07,27.94,22.73,41.9,25.93l43.24,9.88c13.96,3.19,27.89,17.25,30.96,31.23l10.99,50.11c3.07,13.99,14.95,32.46,26.41,41.05l37.64,28.23Z"/>
          </g>
          <g id="SOCIAL">
            <path class="cls-7" d="m663.67,416.6c10.81,9.39,9.47,22.86-2.98,29.94l-49.05,27.87c-12.45,7.07-20.65,24.41-18.23,38.52l4.31,25.08c2.42,14.11-7.2,27.26-21.39,29.21l-32.54,4.48c-14.19,1.95-32.96,12.81-41.73,24.14l-43.71,56.45c-8.77,11.32-24.76,12.88-35.55,3.46l-98.23-85.82c-10.78-9.42-19.64-28.85-19.67-43.16l-.06-23.1c-.04-14.32-6.72-35.68-14.85-47.46l-9.57-13.86c-8.13-11.79-12.12-32.84-8.87-46.78l25.98-111.36c3.25-13.94,16.67-30,29.81-35.68l100.38-43.39c13.14-5.68,30.85-.9,39.34,10.63l23.13,31.4c8.49,11.53,27.13,20.14,41.42,19.13l45.26-3.18c14.28-1,25.98,9.89,25.98,24.21l.02,50.46c0,14.32,8.85,33.72,19.66,43.11l41.12,35.73Z"/>
          </g>
        </g>
      </g>
    </g>
  </g>
</svg>